<svg width="72" height="72" viewBox="0 0 72 72" fill="none" xmlns="http://www.w3.org/2000/svg">
<path d="M35.9999 0C16.1191 0 0 16.1192 0 36C0 55.8805 16.1191 72 35.9999 72C55.8807 72 71.9995 55.8804 71.9995 36C71.9997 16.1192 55.8807 0 35.9999 0ZM38.2501 67.3857V62.9998H33.7499V67.3857C18.1803 66.279 5.72186 53.8202 4.61444 38.2505H8.99991V33.7503H4.61444C5.72186 18.1801 18.1803 5.72172 33.7499 4.6143V8.99978H38.2501V4.61444C53.8199 5.72172 66.278 18.1803 67.3853 33.7504H63.0001V38.2506H67.3853C66.2778 53.8202 53.8197 66.279 38.2501 67.3857ZM52.5629 26.4374C52.8704 26.9738 52.6861 27.664 52.1501 27.9759L40.2653 34.8354C40.3679 35.2178 40.5001 35.5872 40.5001 36C40.5001 38.4873 38.4848 40.4997 36.0001 40.4997C33.5146 40.4997 31.4999 38.4873 31.4999 36L19.2877 28.9511C18.2108 28.3274 17.8419 26.9517 18.4635 25.8751C19.0829 24.7941 20.4607 24.4252 21.5374 25.0494L33.8202 32.142C34.4748 31.773 35.1912 31.5004 36.0001 31.5004C37.2571 31.5004 38.3879 32.0189 39.2059 32.854L51.0247 26.0246C51.5524 25.7124 52.2421 25.897 52.5629 26.4374Z" fill="#5880FF"/>
</svg>
