<svg width="109" height="109" viewBox="0 0 109 109" fill="none" xmlns="http://www.w3.org/2000/svg">
<path d="M17.0312 13.625C11.4163 13.625 6.8125 18.2288 6.8125 23.8438V78.3438C6.8125 83.9587 11.4163 88.5625 17.0312 88.5625H27.25V105.141L52.1316 88.5625H85.1562C90.7712 88.5625 95.375 83.9587 95.375 78.3438V23.8438C95.375 18.2288 90.7712 13.625 85.1562 13.625H17.0312ZM17.0312 20.4375H85.1562C87.0723 20.4375 88.5625 21.9277 88.5625 23.8438V78.3438C88.5625 80.2598 87.0723 81.75 85.1562 81.75H50.0559L34.0625 92.4211V81.75H17.0312C15.1152 81.75 13.625 80.2598 13.625 78.3438V23.8438C13.625 21.9277 15.1152 20.4375 17.0312 20.4375ZM47.6875 27.25V34.0625H54.5V27.25H47.6875ZM47.6875 40.875V74.9375H54.5V40.875H47.6875Z" fill="white"/>
</svg>
