<svg width="72" height="72" viewBox="0 0 72 72" fill="none" xmlns="http://www.w3.org/2000/svg">
<g clip-path="url(#clip0_66_179)">
<path d="M36.8182 24.5452C39.0776 24.5452 40.9092 22.7136 40.9092 20.4542C40.9092 18.1949 39.0776 16.3633 36.8182 16.3633C34.5589 16.3633 32.7273 18.1949 32.7273 20.4542C32.7273 22.7136 34.5589 24.5452 36.8182 24.5452Z" fill="#5880FF"/>
<path d="M45.8182 54.0001H40.9093V27.8184H27.8184V31.0911H32.7274V54.0001H27.8184V57.2728H45.8182V54.0001Z" fill="#5880FF"/>
<path d="M72 36C72 16.1181 55.8818 0 36 0C16.1181 0 0 16.1181 0 36C0 55.8818 16.1181 72 36 72C55.8818 72 72 55.8818 72 36ZM3.27271 36C3.27271 17.9247 17.9247 3.27271 36 3.27271C54.0753 3.27271 68.7273 17.9247 68.7273 36C68.7273 54.0753 54.0753 68.7273 36 68.7273C17.9247 68.7273 3.27271 54.0753 3.27271 36Z" fill="#5880FF"/>
</g>
<defs>
<clipPath id="clip0_66_179">
<rect width="72" height="72" fill="white"/>
</clipPath>
</defs>
</svg>
