<svg width="525" height="240" viewBox="0 0 525 240" fill="none" xmlns="http://www.w3.org/2000/svg">
<path d="M0.677734 236.522V202.537C0.677734 201.788 0.909022 201.158 1.3716 200.647C1.83417 200.136 2.39954 199.88 3.0677 199.88H13.527C14.1952 199.88 14.8291 200.136 15.4287 200.647C16.0284 201.158 16.431 201.77 16.6366 202.482L24.2176 225.869L31.7987 202.482C32.0043 201.77 32.4069 201.158 33.0066 200.647C33.6062 200.136 34.2401 199.88 34.9083 199.88H45.3676C46.0357 199.88 46.5925 200.136 47.038 200.647C47.5006 201.158 47.7318 201.788 47.7318 202.537V236.522C47.7318 237.271 47.492 237.901 47.0123 238.412C46.5497 238.905 45.9843 239.151 45.3162 239.151H40.6904C40.0223 239.151 39.4483 238.905 38.9686 238.412C38.5061 237.901 38.2748 237.271 38.2748 236.522V209.766L29.2032 236.687C28.9633 237.362 28.5436 237.946 27.9439 238.439C27.3443 238.914 26.7104 239.151 26.0422 239.151H22.3673C21.6992 239.151 21.0653 238.914 20.4656 238.439C19.8831 237.946 19.4634 237.362 19.2064 236.687L10.1605 209.766V236.522C10.1605 237.271 9.92066 237.901 9.44095 238.412C8.97838 238.905 8.41301 239.151 7.74485 239.151H3.1191C2.45094 239.151 1.877 238.905 1.39729 238.412C0.917588 237.901 0.677734 237.271 0.677734 236.522Z" fill="white"/>
<path d="M55.1073 236.522V202.427C55.1073 201.715 55.3472 201.113 55.8269 200.62C56.3066 200.127 56.8806 199.88 57.5487 199.88H87.1792C87.8474 199.88 88.4127 200.136 88.8753 200.647C89.355 201.158 89.5949 201.77 89.5949 202.482V205.056C89.5949 205.768 89.355 206.38 88.8753 206.891C88.4127 207.384 87.8474 207.63 87.1792 207.63H64.7957V215.6H84.0697C84.7378 215.6 85.3032 215.855 85.7658 216.366C86.2455 216.859 86.4853 217.462 86.4853 218.174V220.748C86.4853 221.46 86.2455 222.072 85.7658 222.583C85.3032 223.076 84.7378 223.322 84.0697 223.322H64.7957V231.401H87.1278C87.796 231.401 88.3528 231.648 88.7982 232.141C89.2608 232.634 89.4921 233.236 89.4921 233.948V236.577C89.4921 237.289 89.2522 237.901 88.7725 238.412C88.2928 238.905 87.7188 239.151 87.0507 239.151H57.5487C56.8806 239.151 56.3066 238.905 55.8269 238.412C55.3472 237.901 55.1073 237.271 55.1073 236.522Z" fill="white"/>
<path d="M94.3234 236.632V202.482C94.3234 201.733 94.5547 201.113 95.0173 200.62C95.4798 200.127 96.0623 199.88 96.7648 199.88H121.59C122.292 199.88 122.866 200.127 123.311 200.62C123.774 201.113 124.005 201.733 124.005 202.482V205.056C124.005 205.805 123.774 206.425 123.311 206.918C122.866 207.393 122.292 207.63 121.59 207.63H104.012V236.632C104.012 237.344 103.772 237.946 103.292 238.439C102.83 238.914 102.264 239.151 101.596 239.151H96.7648C96.0966 239.151 95.5227 238.914 95.043 238.439C94.5632 237.946 94.3234 237.344 94.3234 236.632Z" fill="white"/>
<path d="M120.947 236.632L127.397 210.561C129.145 203.459 134.833 199.898 144.461 199.88H158.313C158.947 199.88 159.469 200.136 159.88 200.647C160.309 201.158 160.523 201.752 160.523 202.427V236.632C160.523 237.344 160.283 237.946 159.803 238.439C159.324 238.914 158.75 239.151 158.082 239.151H153.25C152.548 239.151 151.965 238.914 151.503 238.439C151.057 237.946 150.835 237.326 150.835 236.577V229.676H132.563L130.841 236.577C130.67 237.326 130.284 237.946 129.685 238.439C129.085 238.914 128.451 239.151 127.783 239.151H122.72C122.052 239.151 121.547 238.905 121.204 238.412C120.964 238.083 120.844 237.709 120.844 237.289C120.861 237.088 120.896 236.869 120.947 236.632ZM134.465 221.926H150.835V207.63H143.51C141.866 207.63 140.427 208.132 139.193 209.137C137.977 210.122 137.154 211.455 136.726 213.135L134.465 221.926Z" fill="white"/>
<path d="M164.815 238.357C164.763 238.211 164.729 238.065 164.712 237.919C164.712 237.517 164.892 237.07 165.251 236.577L178.204 218.968L165.997 202.482C165.637 202.007 165.457 201.56 165.457 201.14C165.457 200.976 165.483 200.82 165.534 200.674C165.723 200.145 166.168 199.88 166.871 199.88H172.396C174.109 199.88 175.608 200.747 176.893 202.482L183.934 212.012L190.976 202.482C192.244 200.766 193.743 199.898 195.473 199.88H200.998C201.701 199.88 202.146 200.145 202.335 200.674C202.386 200.82 202.412 200.976 202.412 201.14C202.412 201.542 202.232 201.989 201.872 202.482L189.665 218.968L202.617 236.577C202.977 237.052 203.157 237.499 203.157 237.919C203.157 238.083 203.123 238.229 203.054 238.357C202.866 238.887 202.42 239.151 201.718 239.151H196.244C194.531 239.151 193.04 238.293 191.772 236.577L183.934 225.924L176.096 236.577C174.829 238.293 173.338 239.151 171.625 239.151H166.151C165.449 239.151 165.003 238.887 164.815 238.357Z" fill="#7CA1FF"/>
<path d="M208.399 235.098C204.887 231.812 203.131 226.618 203.131 219.516C203.131 212.414 204.887 207.229 208.399 203.961C211.912 200.693 217.051 199.059 223.819 199.059C230.603 199.059 235.743 200.693 239.238 203.961C242.75 207.229 244.506 212.414 244.506 219.516C244.506 226.618 242.75 231.812 239.238 235.098C235.743 238.366 230.603 240 223.819 240C217.051 240 211.912 238.366 208.399 235.098ZM215.415 209.739C213.685 211.93 212.82 215.198 212.82 219.543C212.82 223.87 213.685 227.129 215.415 229.32C217.163 231.493 219.964 232.579 223.819 232.579C227.691 232.579 230.492 231.493 232.222 229.32C233.952 227.129 234.818 223.87 234.818 219.543C234.818 215.198 233.952 211.93 232.222 209.739C230.492 207.548 227.691 206.453 223.819 206.453C219.964 206.453 217.163 207.548 215.415 209.739Z" fill="#7CA1FF"/>
<path d="M246.716 236.851L253.243 210.561C254.991 203.459 260.67 199.898 270.282 199.88H283.131C283.731 199.88 284.236 200.145 284.647 200.674C285.075 201.204 285.29 201.806 285.29 202.482V236.577C285.29 237.289 285.058 237.901 284.596 238.412C284.15 238.905 283.594 239.151 282.925 239.151H278.017C277.349 239.151 276.775 238.905 276.295 238.412C275.833 237.901 275.601 237.289 275.601 236.577V207.63H269.331C267.686 207.63 266.247 208.132 265.013 209.137C263.797 210.122 262.975 211.455 262.546 213.135L256.661 236.577C256.49 237.326 256.105 237.946 255.505 238.439C254.905 238.914 254.271 239.151 253.603 239.151H248.386C247.787 239.151 247.324 238.914 246.999 238.439C246.759 238.111 246.639 237.755 246.639 237.371C246.656 237.207 246.682 237.034 246.716 236.851Z" fill="#7CA1FF"/>
<path d="M295.826 235.098C292.314 231.812 290.558 226.618 290.558 219.516C290.558 212.414 292.314 207.229 295.826 203.961C299.338 200.693 304.478 199.059 311.245 199.059C318.03 199.059 323.169 200.693 326.664 203.961C330.176 207.229 331.933 212.414 331.933 219.516C331.933 226.618 330.176 231.812 326.664 235.098C323.169 238.366 318.03 240 311.245 240C304.478 240 299.338 238.366 295.826 235.098ZM302.842 209.739C301.111 211.93 300.246 215.198 300.246 219.543C300.246 223.87 301.111 227.129 302.842 229.32C304.589 231.493 307.39 232.579 311.245 232.579C315.117 232.579 317.918 231.493 319.649 229.32C321.379 227.129 322.244 223.87 322.244 219.543C322.244 215.198 321.379 211.93 319.649 209.739C317.918 207.548 315.117 206.453 311.245 206.453C307.39 206.453 304.589 207.548 302.842 209.739Z" fill="#7CA1FF"/>
<path d="M331.907 236.577V233.948C331.907 233.236 332.138 232.634 332.601 232.141C333.08 231.648 333.654 231.401 334.323 231.401H336.327L341.107 210.67C342.752 203.495 348.32 199.898 357.811 199.88H371.688C372.356 199.88 372.922 200.127 373.384 200.62C373.864 201.113 374.104 201.715 374.104 202.427V236.632C374.104 237.344 373.864 237.946 373.384 238.439C372.922 238.914 372.356 239.151 371.688 239.151H334.323C333.654 239.151 333.08 238.905 332.601 238.412C332.138 237.901 331.907 237.289 331.907 236.577ZM346.221 231.401H364.441V207.63H356.757C355.147 207.63 353.802 208.105 352.723 209.054C351.661 210.004 350.932 211.327 350.538 213.025L346.221 231.401Z" fill="#7CA1FF"/>
<path d="M202.338 40.4895V120.832H39.3879V40.4895H202.338ZM241.726 1.10156H39.3879C28.9416 1.10156 18.9231 5.25137 11.5365 12.638C4.14981 20.0247 0 30.0432 0 40.4895V160.219H241.726V1.10156Z" fill="#7CA1FF"/>
<path d="M524.072 239.195L404.844 239.199C404.844 233.914 405.886 228.681 407.909 223.799C409.932 218.917 412.898 214.482 416.636 210.747C420.375 207.011 424.813 204.05 429.696 202.03C434.58 200.011 439.814 198.974 445.098 198.978L483.817 198.974V146.623L420.97 40.9555H322.567V120.564H403.642C425.868 120.564 443.863 136.793 444.029 159.019L282.346 160.119V1.00107L413.539 0.00141284C422.743 -0.0660509 431.804 2.28364 439.815 6.81563C447.826 11.3476 454.508 17.9031 459.191 25.8268L524.072 135.427V239.195Z" fill="white"/>
<rect x="202.326" y="1.10156" width="39.3972" height="39.3836" fill="white"/>
</svg>
