<svg width="635" height="291" viewBox="0 0 635 291" fill="none" xmlns="http://www.w3.org/2000/svg">
<path d="M0.819763 286.247V245.116C0.819763 244.21 1.09967 243.448 1.6595 242.829C2.21932 242.211 2.90355 241.901 3.71218 241.901H16.3704C17.179 241.901 17.9462 242.211 18.6719 242.829C19.3976 243.448 19.8849 244.188 20.1337 245.05L29.3085 273.354L38.4834 245.05C38.7322 244.188 39.2195 243.448 39.9452 242.829C40.6709 242.211 41.438 241.901 42.2467 241.901H54.9049C55.7135 241.901 56.3874 242.211 56.9265 242.829C57.4863 243.448 57.7662 244.21 57.7662 245.116V286.247C57.7662 287.153 57.4759 287.915 56.8954 288.534C56.3356 289.13 55.6513 289.429 54.8427 289.429H49.2445C48.4358 289.429 47.7412 289.13 47.1607 288.534C46.6009 287.915 46.3209 287.153 46.3209 286.247V253.866L35.3422 286.446C35.0519 287.263 34.5439 287.97 33.8182 288.567C33.0925 289.141 32.3254 289.429 31.5167 289.429H27.0693C26.2606 289.429 25.4935 289.141 24.7678 288.567C24.0628 287.97 23.5548 287.263 23.2438 286.446L12.2961 253.866V286.247C12.2961 287.153 12.0059 287.915 11.4253 288.534C10.8655 289.13 10.1813 289.429 9.37262 289.429H3.77439C2.96575 289.429 2.27116 289.13 1.6906 288.534C1.11004 287.915 0.819763 287.153 0.819763 286.247Z" fill="#0B1CA0"/>
<path d="M66.6923 286.247V244.984C66.6923 244.122 66.9826 243.393 67.5631 242.796C68.1437 242.2 68.8383 241.901 69.6469 241.901H105.507C106.315 241.901 107 242.211 107.559 242.829C108.14 243.448 108.43 244.188 108.43 245.05V248.165C108.43 249.027 108.14 249.767 107.559 250.386C107 250.983 106.315 251.281 105.507 251.281H78.4175V260.926H101.743C102.552 260.926 103.236 261.235 103.796 261.854C104.377 262.45 104.667 263.179 104.667 264.041V267.156C104.667 268.018 104.377 268.758 103.796 269.377C103.236 269.974 102.552 270.272 101.743 270.272H78.4175V280.049H105.445C106.253 280.049 106.927 280.347 107.466 280.944C108.026 281.541 108.306 282.27 108.306 283.132V286.313C108.306 287.175 108.016 287.915 107.435 288.534C106.854 289.13 106.16 289.429 105.351 289.429H69.6469C68.8383 289.429 68.1437 289.13 67.5631 288.534C66.9826 287.915 66.6923 287.153 66.6923 286.247Z" fill="#0B1CA0"/>
<path d="M114.153 286.38V245.05C114.153 244.144 114.433 243.393 114.993 242.796C115.552 242.2 116.257 241.901 117.107 241.901H147.151C148.001 241.901 148.696 242.2 149.235 242.796C149.795 243.393 150.075 244.144 150.075 245.05V248.165C150.075 249.071 149.795 249.823 149.235 250.419C148.696 250.994 148.001 251.281 147.151 251.281H125.878V286.38C125.878 287.241 125.588 287.97 125.007 288.567C124.447 289.141 123.763 289.429 122.955 289.429H117.107C116.299 289.429 115.604 289.141 115.024 288.567C114.443 287.97 114.153 287.241 114.153 286.38Z" fill="#0B1CA0"/>
<path d="M146.374 286.38L154.18 254.827C156.295 246.232 163.179 241.923 174.831 241.901H191.595C192.362 241.901 192.995 242.211 193.492 242.829C194.011 243.448 194.27 244.166 194.27 244.984V286.38C194.27 287.241 193.98 287.97 193.399 288.567C192.818 289.141 192.124 289.429 191.315 289.429H185.468C184.618 289.429 183.913 289.141 183.353 288.567C182.814 287.97 182.545 287.219 182.545 286.313V277.961H160.432L158.348 286.313C158.14 287.219 157.674 287.97 156.948 288.567C156.223 289.141 155.455 289.429 154.647 289.429H148.52C147.711 289.429 147.099 289.13 146.685 288.534C146.395 288.136 146.249 287.683 146.249 287.175C146.27 286.932 146.312 286.667 146.374 286.38ZM162.733 268.582H182.545V251.281H173.681C171.69 251.281 169.949 251.888 168.456 253.104C166.984 254.297 165.988 255.91 165.47 257.943L162.733 268.582Z" fill="#0B1CA0"/>
<path d="M199.464 288.468C199.402 288.291 199.36 288.114 199.339 287.937C199.339 287.451 199.557 286.91 199.992 286.313L215.667 265.002L200.894 245.05C200.459 244.475 200.241 243.934 200.241 243.426C200.241 243.227 200.272 243.039 200.335 242.862C200.563 242.222 201.102 241.901 201.952 241.901H208.639C210.712 241.901 212.526 242.951 214.081 245.05L222.603 256.584L231.125 245.05C232.659 242.973 234.473 241.923 236.568 241.901H243.254C244.104 241.901 244.644 242.222 244.872 242.862C244.934 243.039 244.965 243.227 244.965 243.426C244.965 243.912 244.747 244.453 244.312 245.05L229.539 265.002L245.214 286.313C245.649 286.888 245.867 287.429 245.867 287.937C245.867 288.136 245.825 288.313 245.742 288.468C245.514 289.108 244.975 289.429 244.125 289.429H237.501C235.427 289.429 233.623 288.39 232.089 286.313L222.603 273.421L213.117 286.313C211.583 288.39 209.779 289.429 207.706 289.429H201.081C200.231 289.429 199.692 289.108 199.464 288.468Z" fill="#7CA1FF"/>
<path d="M252.212 284.524C247.961 280.546 245.836 274.26 245.836 265.665C245.836 257.07 247.961 250.795 252.212 246.84C256.462 242.885 262.682 240.907 270.872 240.907C279.083 240.907 285.303 242.885 289.533 246.84C293.784 250.795 295.909 257.07 295.909 265.665C295.909 274.26 293.784 280.546 289.533 284.524C285.303 288.479 279.083 290.456 270.872 290.456C262.682 290.456 256.462 288.479 252.212 284.524ZM260.702 253.833C258.608 256.484 257.561 260.439 257.561 265.698C257.561 270.935 258.608 274.879 260.702 277.53C262.817 280.16 266.207 281.474 270.872 281.474C275.558 281.474 278.948 280.16 281.042 277.53C283.137 274.879 284.184 270.935 284.184 265.698C284.184 260.439 283.137 256.484 281.042 253.833C278.948 251.181 275.558 249.856 270.872 249.856C266.207 249.856 262.817 251.181 260.702 253.833Z" fill="#7CA1FF"/>
<path d="M298.584 286.645L306.483 254.827C308.598 246.232 315.472 241.923 327.103 241.901H342.654C343.38 241.901 343.991 242.222 344.489 242.862C345.007 243.503 345.267 244.232 345.267 245.05V286.313C345.267 287.175 344.987 287.915 344.427 288.534C343.888 289.13 343.214 289.429 342.405 289.429H336.465C335.656 289.429 334.962 289.13 334.381 288.534C333.821 287.915 333.541 287.175 333.541 286.313V251.281H325.953C323.962 251.281 322.221 251.888 320.728 253.104C319.256 254.297 318.26 255.91 317.742 257.943L310.62 286.313C310.412 287.219 309.946 287.97 309.22 288.567C308.494 289.141 307.727 289.429 306.919 289.429H300.605C299.879 289.429 299.32 289.141 298.926 288.567C298.635 288.169 298.49 287.738 298.49 287.274C298.511 287.076 298.542 286.866 298.584 286.645Z" fill="#7CA1FF"/>
<path d="M358.018 284.524C353.768 280.546 351.642 274.26 351.642 265.665C351.642 257.07 353.768 250.795 358.018 246.84C362.269 242.885 368.489 240.907 376.679 240.907C384.89 240.907 391.11 242.885 395.34 246.84C399.59 250.795 401.715 257.07 401.715 265.665C401.715 274.26 399.59 280.546 395.34 284.524C391.11 288.479 384.89 290.456 376.679 290.456C368.489 290.456 362.269 288.479 358.018 284.524ZM366.509 253.833C364.415 256.484 363.367 260.439 363.367 265.698C363.367 270.935 364.415 274.879 366.509 277.53C368.624 280.16 372.014 281.474 376.679 281.474C381.365 281.474 384.755 280.16 386.849 277.53C388.943 274.879 389.99 270.935 389.99 265.698C389.99 260.439 388.943 256.484 386.849 253.833C384.755 251.181 381.365 249.856 376.679 249.856C372.014 249.856 368.624 251.181 366.509 253.833Z" fill="#7CA1FF"/>
<path d="M401.684 286.313V283.132C401.684 282.27 401.964 281.541 402.524 280.944C403.105 280.347 403.799 280.049 404.608 280.049H407.034L412.819 254.96C414.809 246.276 421.548 241.923 433.034 241.901H449.829C450.638 241.901 451.322 242.2 451.882 242.796C452.462 243.393 452.753 244.122 452.753 244.984V286.38C452.753 287.241 452.462 287.97 451.882 288.567C451.322 289.141 450.638 289.429 449.829 289.429H404.608C403.799 289.429 403.105 289.13 402.524 288.534C401.964 287.915 401.684 287.175 401.684 286.313ZM419.008 280.049H441.059V251.281H431.759C429.81 251.281 428.183 251.855 426.876 253.004C425.591 254.153 424.71 255.755 424.233 257.81L419.008 280.049Z" fill="#7CA1FF"/>
<path d="M244.868 48.9243V146.004H47.667V48.9243H244.868ZM292.535 1.33057H47.667C35.0249 1.33057 22.9007 6.34492 13.9614 15.2705C5.02207 24.196 0 36.3017 0 48.9243V193.598H292.535V1.33057Z" fill="#7CA1FF"/>
<path d="M634.228 289.027L489.939 289.032C489.939 282.647 491.2 276.323 493.648 270.424C496.097 264.525 499.686 259.166 504.21 254.652C508.734 250.139 514.105 246.56 520.015 244.12C525.925 241.68 532.259 240.426 538.655 240.432L585.512 240.426V177.17L509.455 49.4879H390.368V145.682H488.484C515.383 145.682 537.16 165.291 537.361 192.148L341.693 193.477V1.20962L500.462 0.00170719C511.6 -0.0798115 522.565 2.7594 532.261 8.23555C541.956 13.7117 550.042 21.6329 555.71 31.2074L634.228 163.64V289.027Z" fill="#0B1CA0"/>
<rect x="244.862" y="1.33325" width="47.6798" height="47.6633" fill="#F5F5F5"/>
</svg>
