<svg width="109" height="109" viewBox="0 0 109 109" fill="none" xmlns="http://www.w3.org/2000/svg">
<path d="M54.5 13.625C43.2434 13.625 34.0625 22.8059 34.0625 34.0625C34.0625 45.3191 43.2434 54.5 54.5 54.5C65.7566 54.5 74.9375 45.3191 74.9375 34.0625C74.9375 22.8059 65.7566 13.625 54.5 13.625ZM54.5 54.5C35.739 54.5 20.4375 69.8015 20.4375 88.5625H27.25C27.25 73.4739 39.4114 61.3125 54.5 61.3125C69.5886 61.3125 81.75 73.4739 81.75 88.5625H88.5625C88.5625 69.8015 73.261 54.5 54.5 54.5ZM54.5 20.4375C62.0576 20.4375 68.125 26.5049 68.125 34.0625C68.125 41.6201 62.0576 47.6875 54.5 47.6875C46.9424 47.6875 40.875 41.6201 40.875 34.0625C40.875 26.5049 46.9424 20.4375 54.5 20.4375Z" fill="white"/>
</svg>
