<svg width="461" height="461" viewBox="0 0 461 461" fill="none" xmlns="http://www.w3.org/2000/svg">
<mask id="path-1-inside-1_391_215" fill="white">
<path d="M461 230.5C461 357.802 357.802 461 230.5 461C103.198 461 0 357.802 0 230.5C0 103.198 103.198 0 230.5 0C357.802 0 461 103.198 461 230.5ZM46.1 230.5C46.1 332.341 128.659 414.9 230.5 414.9C332.341 414.9 414.9 332.341 414.9 230.5C414.9 128.659 332.341 46.1 230.5 46.1C128.659 46.1 46.1 128.659 46.1 230.5Z"/>
</mask>
<path d="M461 230.5C461 357.802 357.802 461 230.5 461C103.198 461 0 357.802 0 230.5C0 103.198 103.198 0 230.5 0C357.802 0 461 103.198 461 230.5ZM46.1 230.5C46.1 332.341 128.659 414.9 230.5 414.9C332.341 414.9 414.9 332.341 414.9 230.5C414.9 128.659 332.341 46.1 230.5 46.1C128.659 46.1 46.1 128.659 46.1 230.5Z" stroke="white" stroke-opacity="0.4" stroke-width="75.8758" mask="url(#path-1-inside-1_391_215)"/>
<mask id="path-2-inside-2_391_215" fill="white">
<path d="M230.5 23.05C230.5 10.3199 240.846 -0.119411 253.512 1.15147C290.97 4.90977 327.063 17.8016 358.559 38.8463C396.464 64.1739 426.008 100.173 443.454 142.291C460.9 184.41 465.465 230.756 456.571 275.468C447.677 320.181 425.724 361.252 393.488 393.488C361.252 425.724 320.181 447.677 275.468 456.571C230.756 465.465 184.41 460.9 142.291 443.454C100.173 426.008 64.1739 396.464 38.8462 358.559C17.8016 327.063 4.90974 290.97 1.15145 253.512C-0.119441 240.846 10.3198 230.5 23.05 230.5V230.5C35.7801 230.5 45.9515 240.86 47.5387 253.491C51.0978 281.815 61.2007 309.037 77.177 332.947C97.4391 363.272 126.238 386.907 159.933 400.863C193.628 414.82 230.705 418.472 266.475 411.357C302.245 404.242 335.102 386.679 360.89 360.89C386.679 335.102 404.242 302.245 411.357 266.475C418.472 230.705 414.82 193.628 400.863 159.933C386.907 126.238 363.272 97.4391 332.947 77.177C309.037 61.2008 281.815 51.0979 253.491 47.5387C240.86 45.9515 230.5 35.7802 230.5 23.05V23.05Z"/>
</mask>
<path d="M230.5 23.05C230.5 10.3199 240.846 -0.119411 253.512 1.15147C290.97 4.90977 327.063 17.8016 358.559 38.8463C396.464 64.1739 426.008 100.173 443.454 142.291C460.9 184.41 465.465 230.756 456.571 275.468C447.677 320.181 425.724 361.252 393.488 393.488C361.252 425.724 320.181 447.677 275.468 456.571C230.756 465.465 184.41 460.9 142.291 443.454C100.173 426.008 64.1739 396.464 38.8462 358.559C17.8016 327.063 4.90974 290.97 1.15145 253.512C-0.119441 240.846 10.3198 230.5 23.05 230.5V230.5C35.7801 230.5 45.9515 240.86 47.5387 253.491C51.0978 281.815 61.2007 309.037 77.177 332.947C97.4391 363.272 126.238 386.907 159.933 400.863C193.628 414.82 230.705 418.472 266.475 411.357C302.245 404.242 335.102 386.679 360.89 360.89C386.679 335.102 404.242 302.245 411.357 266.475C418.472 230.705 414.82 193.628 400.863 159.933C386.907 126.238 363.272 97.4391 332.947 77.177C309.037 61.2008 281.815 51.0979 253.491 47.5387C240.86 45.9515 230.5 35.7802 230.5 23.05V23.05Z" stroke="white" stroke-width="75.8758" mask="url(#path-2-inside-2_391_215)"/>
<path d="M129.826 120H121V128.84H129.826V120Z" fill="white"/>
<path d="M138.653 120H129.826V128.84H138.653V120Z" fill="white"/>
<path d="M147.479 120H138.653V128.84H147.479V120Z" fill="white"/>
<path d="M156.305 120H147.479V128.84H156.305V120Z" fill="white"/>
<path d="M165.132 120H156.305V128.84H165.132V120Z" fill="white"/>
<path d="M173.958 120H165.132V128.84H173.958V120Z" fill="white"/>
<path d="M182.784 120H173.958V128.84H182.784V120Z" fill="white"/>
<path d="M200.437 120H191.611V128.84H200.437V120Z" fill="white"/>
<path d="M209.263 120H200.437V128.84H209.263V120Z" fill="white"/>
<path d="M244.569 120H235.742V128.84H244.569V120Z" fill="white"/>
<path d="M271.048 120H262.221V128.84H271.048V120Z" fill="white"/>
<path d="M288.7 120H279.874V128.84H288.7V120Z" fill="white"/>
<path d="M297.527 120H288.7V128.84H297.527V120Z" fill="white"/>
<path d="M306.353 120H297.527V128.84H306.353V120Z" fill="white"/>
<path d="M315.18 120H306.353V128.84H315.18V120Z" fill="white"/>
<path d="M324.006 120H315.18V128.84H324.006V120Z" fill="white"/>
<path d="M332.832 120H324.006V128.84H332.832V120Z" fill="white"/>
<path d="M341.659 120H332.832V128.84H341.659V120Z" fill="white"/>
<path d="M129.826 128.84H121V137.68H129.826V128.84Z" fill="white"/>
<path d="M182.784 128.84H173.958L173.958 137.68H182.784V128.84Z" fill="white"/>
<path d="M235.742 128.84H226.916V137.68H235.742V128.84Z" fill="white"/>
<path d="M244.569 128.84H235.742V137.68H244.569V128.84Z" fill="white"/>
<path d="M271.048 128.84H262.221V137.68H271.048V128.84Z" fill="white"/>
<path d="M288.7 128.84H279.874V137.68H288.7V128.84Z" fill="white"/>
<path d="M341.659 128.84H332.832V137.68H341.659V128.84Z" fill="white"/>
<path d="M129.826 137.68H121V146.52H129.826V137.68Z" fill="white"/>
<path d="M147.479 137.68H138.653V146.52H147.479V137.68Z" fill="white"/>
<path d="M156.305 137.68H147.479V146.52H156.305V137.68Z" fill="white"/>
<path d="M165.132 137.68H156.305V146.52H165.132V137.68Z" fill="white"/>
<path d="M182.784 137.68H173.958V146.52H182.784V137.68Z" fill="white"/>
<path d="M209.263 137.68H200.437V146.52H209.263V137.68Z" fill="white"/>
<path d="M218.09 137.68H209.263V146.52H218.09V137.68Z" fill="white"/>
<path d="M226.916 137.68H218.09V146.52H226.916V137.68Z" fill="white"/>
<path d="M235.742 137.68H226.916V146.52H235.742V137.68Z" fill="white"/>
<path d="M244.569 137.68H235.742V146.52H244.569V137.68Z" fill="white"/>
<path d="M271.048 137.68H262.221V146.52H271.048V137.68Z" fill="white"/>
<path d="M288.7 137.68H279.874V146.52H288.7V137.68Z" fill="white"/>
<path d="M306.353 137.68H297.527V146.52H306.353V137.68Z" fill="white"/>
<path d="M315.18 137.68H306.353V146.52H315.18V137.68Z" fill="white"/>
<path d="M324.006 137.68H315.18V146.52H324.006V137.68Z" fill="white"/>
<path d="M341.659 137.68H332.832V146.52H341.659V137.68Z" fill="white"/>
<path d="M129.826 146.52H121V155.36H129.826V146.52Z" fill="white"/>
<path d="M147.479 146.52H138.653V155.36H147.479V146.52Z" fill="white"/>
<path d="M156.305 146.52H147.479V155.36H156.305V146.52Z" fill="white"/>
<path d="M165.132 146.52H156.305V155.36H165.132V146.52Z" fill="white"/>
<path d="M182.784 146.52H173.958V155.36H182.784V146.52Z" fill="white"/>
<path d="M209.263 146.52H200.437V155.36H209.263V146.52Z" fill="white"/>
<path d="M218.09 146.52H209.263V155.36H218.09V146.52Z" fill="white"/>
<path d="M244.569 146.52H235.742V155.36H244.569V146.52Z" fill="white"/>
<path d="M288.7 146.52H279.874V155.36H288.7V146.52Z" fill="white"/>
<path d="M306.353 146.52H297.527V155.36H306.353V146.52Z" fill="white"/>
<path d="M315.18 146.52H306.353V155.36H315.18V146.52Z" fill="white"/>
<path d="M324.006 146.52H315.18V155.36H324.006V146.52Z" fill="white"/>
<path d="M341.659 146.52H332.832V155.36H341.659V146.52Z" fill="white"/>
<path d="M129.826 155.36H121V164.2H129.826V155.36Z" fill="white"/>
<path d="M147.479 155.36H138.653V164.2H147.479V155.36Z" fill="white"/>
<path d="M156.305 155.36H147.479V164.2H156.305V155.36Z" fill="white"/>
<path d="M165.132 155.36H156.305V164.2H165.132V155.36Z" fill="white"/>
<path d="M182.784 155.36H173.958V164.2H182.784V155.36Z" fill="white"/>
<path d="M200.437 155.36H191.611V164.2H200.437V155.36Z" fill="white"/>
<path d="M218.09 155.36H209.263V164.2H218.09V155.36Z" fill="white"/>
<path d="M226.916 155.36H218.09V164.2H226.916V155.36Z" fill="white"/>
<path d="M235.742 155.36H226.916V164.2H235.742V155.36Z" fill="white"/>
<path d="M253.395 155.36H244.569V164.2H253.395V155.36Z" fill="white"/>
<path d="M288.7 155.36H279.874V164.2H288.7V155.36Z" fill="white"/>
<path d="M306.353 155.36H297.527V164.2H306.353V155.36Z" fill="white"/>
<path d="M315.18 155.36H306.353V164.2H315.18V155.36Z" fill="white"/>
<path d="M324.006 155.36H315.18V164.2H324.006V155.36Z" fill="white"/>
<path d="M341.659 155.36H332.832V164.2H341.659V155.36Z" fill="white"/>
<path d="M129.826 164.2H121V173.04H129.826V164.2Z" fill="white"/>
<path d="M182.784 164.2H173.958V173.04H182.784V164.2Z" fill="white"/>
<path d="M253.395 164.2H244.569V173.04H253.395V164.2Z" fill="white"/>
<path d="M288.7 164.2H279.874V173.04H288.7V164.2Z" fill="white"/>
<path d="M341.659 164.2H332.832V173.04H341.659V164.2Z" fill="white"/>
<path d="M129.826 173.04H121V181.88H129.826V173.04Z" fill="white"/>
<path d="M138.653 173.04L129.826 173.04V181.88H138.653V173.04Z" fill="white"/>
<path d="M147.479 173.04H138.653V181.88H147.479V173.04Z" fill="white"/>
<path d="M156.305 173.04H147.479V181.88H156.305V173.04Z" fill="white"/>
<path d="M165.132 173.04H156.305V181.88H165.132V173.04Z" fill="white"/>
<path d="M173.958 173.04L165.132 173.04V181.88H173.958L173.958 173.04Z" fill="white"/>
<path d="M182.784 173.04H173.958L173.958 181.88H182.784V173.04Z" fill="white"/>
<path d="M200.437 173.04H191.611V181.88H200.437V173.04Z" fill="white"/>
<path d="M218.09 173.04H209.263V181.88H218.09V173.04Z" fill="white"/>
<path d="M235.742 173.04H226.916V181.88H235.742V173.04Z" fill="white"/>
<path d="M253.395 173.04H244.569V181.88H253.395V173.04Z" fill="white"/>
<path d="M271.048 173.04H262.221V181.88H271.048V173.04Z" fill="white"/>
<path d="M288.7 173.04H279.874V181.88H288.7V173.04Z" fill="white"/>
<path d="M297.527 173.04L288.7 173.04V181.88H297.527V173.04Z" fill="white"/>
<path d="M306.353 173.04H297.527V181.88H306.353V173.04Z" fill="white"/>
<path d="M315.18 173.04H306.353V181.88H315.18V173.04Z" fill="white"/>
<path d="M324.006 173.04H315.18V181.88H324.006V173.04Z" fill="white"/>
<path d="M332.832 173.04L324.006 173.04V181.88H332.832V173.04Z" fill="white"/>
<path d="M341.659 173.04H332.832V181.88H341.659V173.04Z" fill="white"/>
<path d="M200.437 181.88H191.611V190.72H200.437V181.88Z" fill="white"/>
<path d="M218.09 181.88H209.263V190.72H218.09V181.88Z" fill="white"/>
<path d="M235.742 181.88H226.916V190.72H235.742V181.88Z" fill="white"/>
<path d="M244.569 181.88H235.742V190.72H244.569V181.88Z" fill="white"/>
<path d="M262.221 181.88H253.395L253.395 190.72H262.221V181.88Z" fill="white"/>
<path d="M271.048 181.88H262.221V190.72H271.048V181.88Z" fill="white"/>
<path d="M129.826 190.72H121V199.56H129.826V190.72Z" fill="white"/>
<path d="M156.305 190.72H147.479V199.56H156.305V190.72Z" fill="white"/>
<path d="M165.132 190.72H156.305V199.56H165.132V190.72Z" fill="white"/>
<path d="M173.958 190.72H165.132V199.56H173.958V190.72Z" fill="white"/>
<path d="M182.784 190.72H173.958V199.56H182.784V190.72Z" fill="white"/>
<path d="M191.611 190.72H182.784V199.56H191.611V190.72Z" fill="white"/>
<path d="M200.437 190.72H191.611V199.56H200.437V190.72Z" fill="white"/>
<path d="M209.263 190.72H200.437V199.56H209.263V190.72Z" fill="white"/>
<path d="M244.569 190.72H235.742V199.56H244.569V190.72Z" fill="white"/>
<path d="M271.048 190.72H262.221V199.56H271.048V190.72Z" fill="white"/>
<path d="M279.874 190.72H271.048V199.56H279.874V190.72Z" fill="white"/>
<path d="M288.7 190.72H279.874V199.56H288.7V190.72Z" fill="white"/>
<path d="M306.353 190.72H297.527V199.56H306.353V190.72Z" fill="white"/>
<path d="M341.659 190.72H332.832V199.56H341.659V190.72Z" fill="white"/>
<path d="M138.653 199.56H129.826V208.4H138.653V199.56Z" fill="white"/>
<path d="M156.305 199.56H147.479V208.4H156.305V199.56Z" fill="white"/>
<path d="M165.132 199.56H156.305V208.4H165.132V199.56Z" fill="white"/>
<path d="M191.611 199.56H182.784V208.4H191.611V199.56Z" fill="white"/>
<path d="M200.437 199.56H191.611V208.4H200.437V199.56Z" fill="white"/>
<path d="M235.742 199.56H226.916V208.4H235.742V199.56Z" fill="white"/>
<path d="M262.221 199.56H253.395V208.4H262.221V199.56Z" fill="white"/>
<path d="M279.874 199.56H271.048V208.4H279.874V199.56Z" fill="white"/>
<path d="M288.7 199.56H279.874V208.4H288.7V199.56Z" fill="white"/>
<path d="M306.353 199.56H297.527V208.4H306.353V199.56Z" fill="white"/>
<path d="M315.18 199.56H306.353V208.4H315.18V199.56Z" fill="white"/>
<path d="M324.006 199.56H315.18V208.4H324.006V199.56Z" fill="white"/>
<path d="M332.832 199.56H324.006V208.4H332.832V199.56Z" fill="white"/>
<path d="M341.659 199.56H332.832V208.4H341.659V199.56Z" fill="white"/>
<path d="M129.826 208.4H121V217.24H129.826V208.4Z" fill="white"/>
<path d="M138.653 208.4H129.826V217.24H138.653V208.4Z" fill="white"/>
<path d="M156.305 208.4H147.479V217.24H156.305V208.4Z" fill="white"/>
<path d="M165.132 208.4H156.305V217.24H165.132V208.4Z" fill="white"/>
<path d="M173.958 208.4H165.132V217.24H173.958V208.4Z" fill="white"/>
<path d="M182.784 208.4H173.958V217.24H182.784V208.4Z" fill="white"/>
<path d="M191.611 208.4H182.784V217.24H191.611V208.4Z" fill="white"/>
<path d="M209.263 208.4H200.437V217.24H209.263V208.4Z" fill="white"/>
<path d="M226.916 208.4H218.09V217.24H226.916V208.4Z" fill="white"/>
<path d="M235.742 208.4H226.916V217.24H235.742V208.4Z" fill="white"/>
<path d="M253.395 208.4H244.569V217.24H253.395L253.395 208.4Z" fill="white"/>
<path d="M271.048 208.4H262.221V217.24H271.048V208.4Z" fill="white"/>
<path d="M279.874 208.4H271.048V217.24H279.874V208.4Z" fill="white"/>
<path d="M288.7 208.4H279.874V217.24H288.7V208.4Z" fill="white"/>
<path d="M297.527 208.4H288.7V217.24H297.527V208.4Z" fill="white"/>
<path d="M306.353 208.4H297.527V217.24H306.353V208.4Z" fill="white"/>
<path d="M315.18 208.4H306.353V217.24H315.18V208.4Z" fill="white"/>
<path d="M324.006 208.4H315.18V217.24H324.006V208.4Z" fill="white"/>
<path d="M332.832 208.4H324.006V217.24H332.832V208.4Z" fill="white"/>
<path d="M129.826 217.24H121V226.08H129.826V217.24Z" fill="white"/>
<path d="M165.132 217.24H156.305V226.08H165.132V217.24Z" fill="white"/>
<path d="M173.958 217.24H165.132V226.08H173.958V217.24Z" fill="white"/>
<path d="M191.611 217.24H182.784V226.08H191.611V217.24Z" fill="white"/>
<path d="M209.263 217.24H200.437V226.08H209.263V217.24Z" fill="white"/>
<path d="M218.09 217.24H209.263V226.08H218.09V217.24Z" fill="white"/>
<path d="M253.395 217.24H244.569V226.08H253.395V217.24Z" fill="white"/>
<path d="M262.221 217.24H253.395V226.08H262.221V217.24Z" fill="white"/>
<path d="M306.353 217.24H297.527V226.08H306.353V217.24Z" fill="white"/>
<path d="M324.006 217.24H315.18V226.08H324.006V217.24Z" fill="white"/>
<path d="M332.832 217.24H324.006V226.08H332.832V217.24Z" fill="white"/>
<path d="M129.826 226.08H121V234.92H129.826V226.08Z" fill="white"/>
<path d="M156.305 226.08H147.479V234.92H156.305V226.08Z" fill="white"/>
<path d="M165.132 226.08H156.305V234.92H165.132V226.08Z" fill="white"/>
<path d="M173.958 226.08H165.132V234.92H173.958V226.08Z" fill="white"/>
<path d="M182.784 226.08H173.958V234.92H182.784V226.08Z" fill="white"/>
<path d="M191.611 226.08H182.784V234.92H191.611V226.08Z" fill="white"/>
<path d="M200.437 226.08H191.611V234.92H200.437V226.08Z" fill="white"/>
<path d="M218.09 226.08H209.263V234.92H218.09V226.08Z" fill="white"/>
<path d="M226.916 226.08H218.09V234.92H226.916V226.08Z" fill="white"/>
<path d="M244.569 226.08H235.742V234.92H244.569V226.08Z" fill="white"/>
<path d="M253.395 226.08H244.569V234.92H253.395V226.08Z" fill="white"/>
<path d="M271.048 226.08H262.221V234.92H271.048V226.08Z" fill="white"/>
<path d="M297.527 226.08H288.7V234.92H297.527V226.08Z" fill="white"/>
<path d="M315.18 226.08H306.353V234.92H315.18V226.08Z" fill="white"/>
<path d="M324.006 226.08H315.18V234.92H324.006V226.08Z" fill="white"/>
<path d="M341.659 226.08H332.832V234.92H341.659V226.08Z" fill="white"/>
<path d="M129.826 234.92H121V243.76H129.826V234.92Z" fill="white"/>
<path d="M138.653 234.92H129.826V243.76H138.653V234.92Z" fill="white"/>
<path d="M191.611 234.92H182.784V243.76H191.611V234.92Z" fill="white"/>
<path d="M200.437 234.92H191.611V243.76H200.437V234.92Z" fill="white"/>
<path d="M209.263 234.92H200.437V243.76H209.263V234.92Z" fill="white"/>
<path d="M235.742 234.92H226.916V243.76H235.742V234.92Z" fill="white"/>
<path d="M253.395 234.92H244.569V243.76H253.395V234.92Z" fill="white"/>
<path d="M262.221 234.92H253.395V243.76H262.221V234.92Z" fill="white"/>
<path d="M271.048 234.92H262.221V243.76H271.048V234.92Z" fill="white"/>
<path d="M279.874 234.92H271.048V243.76H279.874V234.92Z" fill="white"/>
<path d="M306.353 234.92H297.527V243.76H306.353V234.92Z" fill="white"/>
<path d="M324.006 234.92H315.18V243.76H324.006V234.92Z" fill="white"/>
<path d="M332.832 234.92H324.006V243.76H332.832V234.92Z" fill="white"/>
<path d="M341.659 234.92H332.832V243.76H341.659V234.92Z" fill="white"/>
<path d="M129.826 243.76H121V252.6H129.826V243.76Z" fill="white"/>
<path d="M138.653 243.76H129.826V252.6H138.653V243.76Z" fill="white"/>
<path d="M147.479 243.76H138.653V252.6H147.479V243.76Z" fill="white"/>
<path d="M182.784 243.76H173.958V252.6H182.784V243.76Z" fill="white"/>
<path d="M209.263 243.76H200.437V252.6H209.263V243.76Z" fill="white"/>
<path d="M226.916 243.76H218.09V252.6H226.916V243.76Z" fill="white"/>
<path d="M235.742 243.76H226.916V252.6H235.742V243.76Z" fill="white"/>
<path d="M253.395 243.76H244.569V252.6H253.395V243.76Z" fill="white"/>
<path d="M279.874 243.76H271.048V252.6H279.874V243.76Z" fill="white"/>
<path d="M297.527 243.76H288.7V252.6H297.527V243.76Z" fill="white"/>
<path d="M306.353 243.76H297.527V252.6H306.353V243.76Z" fill="white"/>
<path d="M324.006 243.76H315.18V252.6H324.006V243.76Z" fill="white"/>
<path d="M138.653 252.6H129.826V261.44H138.653V252.6Z" fill="white"/>
<path d="M191.611 252.6L182.784 252.6V261.44H191.611V252.6Z" fill="white"/>
<path d="M235.742 252.6H226.916V261.44H235.742V252.6Z" fill="white"/>
<path d="M253.395 252.6H244.569V261.44H253.395V252.6Z" fill="white"/>
<path d="M262.221 252.6L253.395 252.6V261.44H262.221V252.6Z" fill="white"/>
<path d="M288.7 252.6H279.874V261.44H288.7V252.6Z" fill="white"/>
<path d="M306.353 252.6H297.527V261.44H306.353V252.6Z" fill="white"/>
<path d="M332.832 252.6L324.006 252.6V261.44H332.832V252.6Z" fill="white"/>
<path d="M129.826 261.44H121V270.28H129.826V261.44Z" fill="white"/>
<path d="M173.958 261.44H165.132V270.28H173.958V261.44Z" fill="white"/>
<path d="M182.784 261.44H173.958V270.28H182.784V261.44Z" fill="white"/>
<path d="M191.611 261.44H182.784V270.28H191.611V261.44Z" fill="white"/>
<path d="M209.263 261.44H200.437V270.28H209.263V261.44Z" fill="white"/>
<path d="M218.09 261.44H209.263V270.28H218.09V261.44Z" fill="white"/>
<path d="M235.742 261.44H226.916V270.28H235.742V261.44Z" fill="white"/>
<path d="M262.221 261.44H253.395L253.395 270.28H262.221V261.44Z" fill="white"/>
<path d="M271.048 261.44H262.221V270.28H271.048V261.44Z" fill="white"/>
<path d="M279.874 261.44H271.048V270.28H279.874V261.44Z" fill="white"/>
<path d="M288.7 261.44H279.874V270.28H288.7V261.44Z" fill="white"/>
<path d="M297.527 261.44H288.7V270.28H297.527V261.44Z" fill="white"/>
<path d="M306.353 261.44H297.527V270.28H306.353V261.44Z" fill="white"/>
<path d="M315.18 261.44H306.353V270.28H315.18V261.44Z" fill="white"/>
<path d="M332.832 261.44H324.006V270.28H332.832V261.44Z" fill="white"/>
<path d="M200.437 270.28H191.611V279.12H200.437V270.28Z" fill="white"/>
<path d="M218.09 270.28H209.263V279.12H218.09V270.28Z" fill="white"/>
<path d="M235.742 270.28H226.916V279.12H235.742V270.28Z" fill="white"/>
<path d="M262.221 270.28H253.395V279.12H262.221V270.28Z" fill="white"/>
<path d="M271.048 270.28H262.221V279.12H271.048V270.28Z" fill="white"/>
<path d="M306.353 270.28H297.527V279.12H306.353V270.28Z" fill="white"/>
<path d="M315.18 270.28H306.353V279.12H315.18V270.28Z" fill="white"/>
<path d="M324.006 270.28H315.18V279.12H324.006V270.28Z" fill="white"/>
<path d="M129.826 279.12H121V287.96H129.826V279.12Z" fill="white"/>
<path d="M138.653 279.12H129.826V287.96H138.653V279.12Z" fill="white"/>
<path d="M147.479 279.12H138.653V287.96H147.479V279.12Z" fill="white"/>
<path d="M156.305 279.12H147.479V287.96H156.305V279.12Z" fill="white"/>
<path d="M165.132 279.12H156.305V287.96H165.132V279.12Z" fill="white"/>
<path d="M173.958 279.12H165.132V287.96H173.958V279.12Z" fill="white"/>
<path d="M182.784 279.12H173.958V287.96H182.784V279.12Z" fill="white"/>
<path d="M200.437 279.12H191.611V287.96H200.437V279.12Z" fill="white"/>
<path d="M235.742 279.12H226.916V287.96H235.742V279.12Z" fill="white"/>
<path d="M262.221 279.12H253.395V287.96H262.221V279.12Z" fill="white"/>
<path d="M271.048 279.12H262.221V287.96H271.048V279.12Z" fill="white"/>
<path d="M288.7 279.12H279.874V287.96H288.7V279.12Z" fill="white"/>
<path d="M306.353 279.12H297.527V287.96H306.353V279.12Z" fill="white"/>
<path d="M315.18 279.12H306.353V287.96H315.18V279.12Z" fill="white"/>
<path d="M324.006 279.12H315.18V287.96H324.006V279.12Z" fill="white"/>
<path d="M341.659 279.12H332.832V287.96H341.659V279.12Z" fill="white"/>
<path d="M129.826 287.96H121V296.8H129.826V287.96Z" fill="white"/>
<path d="M182.784 287.96H173.958L173.958 296.8H182.784V287.96Z" fill="white"/>
<path d="M200.437 287.96H191.611V296.8H200.437V287.96Z" fill="white"/>
<path d="M218.09 287.96H209.263V296.8H218.09V287.96Z" fill="white"/>
<path d="M253.395 287.96H244.569V296.8H253.395L253.395 287.96Z" fill="white"/>
<path d="M271.048 287.96H262.221V296.8H271.048V287.96Z" fill="white"/>
<path d="M306.353 287.96H297.527V296.8H306.353V287.96Z" fill="white"/>
<path d="M324.006 287.96H315.18V296.8H324.006V287.96Z" fill="white"/>
<path d="M129.826 296.8H121V305.64H129.826V296.8Z" fill="white"/>
<path d="M147.479 296.8H138.653V305.64H147.479V296.8Z" fill="white"/>
<path d="M156.305 296.8H147.479V305.64H156.305V296.8Z" fill="white"/>
<path d="M165.132 296.8H156.305V305.64H165.132V296.8Z" fill="white"/>
<path d="M182.784 296.8H173.958V305.64H182.784V296.8Z" fill="white"/>
<path d="M200.437 296.8H191.611V305.64H200.437V296.8Z" fill="white"/>
<path d="M209.263 296.8H200.437V305.64H209.263V296.8Z" fill="white"/>
<path d="M218.09 296.8H209.263V305.64H218.09V296.8Z" fill="white"/>
<path d="M244.569 296.8H235.742V305.64H244.569V296.8Z" fill="white"/>
<path d="M253.395 296.8H244.569V305.64H253.395V296.8Z" fill="white"/>
<path d="M271.048 296.8H262.221V305.64H271.048V296.8Z" fill="white"/>
<path d="M279.874 296.8H271.048V305.64H279.874V296.8Z" fill="white"/>
<path d="M288.7 296.8H279.874V305.64H288.7V296.8Z" fill="white"/>
<path d="M297.527 296.8H288.7V305.64H297.527V296.8Z" fill="white"/>
<path d="M306.353 296.8H297.527V305.64H306.353V296.8Z" fill="white"/>
<path d="M341.659 296.8H332.832V305.64H341.659V296.8Z" fill="white"/>
<path d="M129.826 305.64H121V314.48H129.826V305.64Z" fill="white"/>
<path d="M147.479 305.64H138.653V314.48H147.479V305.64Z" fill="white"/>
<path d="M156.305 305.64H147.479V314.48H156.305V305.64Z" fill="white"/>
<path d="M165.132 305.64H156.305V314.48H165.132V305.64Z" fill="white"/>
<path d="M182.784 305.64H173.958V314.48H182.784V305.64Z" fill="white"/>
<path d="M200.437 305.64H191.611V314.48H200.437V305.64Z" fill="white"/>
<path d="M235.742 305.64H226.916V314.48H235.742V305.64Z" fill="white"/>
<path d="M271.048 305.64H262.221V314.48H271.048V305.64Z" fill="white"/>
<path d="M279.874 305.64H271.048V314.48H279.874V305.64Z" fill="white"/>
<path d="M315.18 305.64H306.353V314.48H315.18V305.64Z" fill="white"/>
<path d="M129.826 314.48H121V323.32H129.826V314.48Z" fill="white"/>
<path d="M147.479 314.48H138.653V323.32H147.479V314.48Z" fill="white"/>
<path d="M156.305 314.48H147.479V323.32H156.305V314.48Z" fill="white"/>
<path d="M165.132 314.48H156.305V323.32H165.132V314.48Z" fill="white"/>
<path d="M182.784 314.48H173.958V323.32H182.784V314.48Z" fill="white"/>
<path d="M226.916 314.48H218.09V323.32H226.916V314.48Z" fill="white"/>
<path d="M235.742 314.48H226.916V323.32H235.742V314.48Z" fill="white"/>
<path d="M253.395 314.48H244.569V323.32H253.395V314.48Z" fill="white"/>
<path d="M262.221 314.48H253.395V323.32H262.221V314.48Z" fill="white"/>
<path d="M271.048 314.48H262.221V323.32H271.048V314.48Z" fill="white"/>
<path d="M297.527 314.48H288.7V323.32H297.527V314.48Z" fill="white"/>
<path d="M306.353 314.48H297.527V323.32H306.353V314.48Z" fill="white"/>
<path d="M324.006 314.48H315.18V323.32H324.006V314.48Z" fill="white"/>
<path d="M332.832 314.48H324.006V323.32H332.832V314.48Z" fill="white"/>
<path d="M341.659 314.48H332.832V323.32H341.659V314.48Z" fill="white"/>
<path d="M129.826 323.32H121V332.16H129.826V323.32Z" fill="white"/>
<path d="M182.784 323.32H173.958V332.16H182.784V323.32Z" fill="white"/>
<path d="M209.263 323.32H200.437V332.16H209.263V323.32Z" fill="white"/>
<path d="M218.09 323.32H209.263V332.16H218.09V323.32Z" fill="white"/>
<path d="M226.916 323.32H218.09V332.16H226.916V323.32Z" fill="white"/>
<path d="M244.569 323.32H235.742V332.16H244.569V323.32Z" fill="white"/>
<path d="M253.395 323.32H244.569V332.16H253.395V323.32Z" fill="white"/>
<path d="M279.874 323.32H271.048V332.16H279.874V323.32Z" fill="white"/>
<path d="M288.7 323.32H279.874V332.16H288.7V323.32Z" fill="white"/>
<path d="M297.527 323.32H288.7V332.16H297.527V323.32Z" fill="white"/>
<path d="M306.353 323.32H297.527V332.16H306.353V323.32Z" fill="white"/>
<path d="M324.006 323.32H315.18V332.16H324.006V323.32Z" fill="white"/>
<path d="M332.832 323.32H324.006V332.16H332.832V323.32Z" fill="white"/>
<path d="M341.659 323.32H332.832V332.16H341.659V323.32Z" fill="white"/>
<path d="M129.826 332.16H121V341H129.826V332.16Z" fill="white"/>
<path d="M138.653 332.16H129.826V341H138.653V332.16Z" fill="white"/>
<path d="M147.479 332.16H138.653V341H147.479V332.16Z" fill="white"/>
<path d="M156.305 332.16H147.479V341H156.305V332.16Z" fill="white"/>
<path d="M165.132 332.16H156.305V341H165.132V332.16Z" fill="white"/>
<path d="M173.958 332.16H165.132V341H173.958L173.958 332.16Z" fill="white"/>
<path d="M182.784 332.16H173.958L173.958 341H182.784V332.16Z" fill="white"/>
<path d="M200.437 332.16H191.611V341H200.437V332.16Z" fill="white"/>
<path d="M226.916 332.16H218.09V341H226.916V332.16Z" fill="white"/>
<path d="M235.742 332.16H226.916V341H235.742V332.16Z" fill="white"/>
<path d="M271.048 332.16H262.221V341H271.048V332.16Z" fill="white"/>
<path d="M315.18 332.16H306.353V341H315.18V332.16Z" fill="white"/>
<path d="M341.659 332.16H332.832V341H341.659V332.16Z" fill="white"/>
<mask id="mask0_391_215" style="mask-type:alpha" maskUnits="userSpaceOnUse" x="121" y="120" width="221" height="221">
<path d="M129.826 120H121V128.84H129.826V120Z" fill="black"/>
<path d="M138.653 120H129.826V128.84H138.653V120Z" fill="black"/>
<path d="M147.479 120H138.653V128.84H147.479V120Z" fill="black"/>
<path d="M156.305 120H147.479V128.84H156.305V120Z" fill="black"/>
<path d="M165.132 120H156.305V128.84H165.132V120Z" fill="black"/>
<path d="M173.958 120H165.132V128.84H173.958V120Z" fill="black"/>
<path d="M182.784 120H173.958V128.84H182.784V120Z" fill="black"/>
<path d="M200.437 120H191.611V128.84H200.437V120Z" fill="black"/>
<path d="M209.263 120H200.437V128.84H209.263V120Z" fill="black"/>
<path d="M244.569 120H235.742V128.84H244.569V120Z" fill="black"/>
<path d="M271.048 120H262.221V128.84H271.048V120Z" fill="black"/>
<path d="M288.7 120H279.874V128.84H288.7V120Z" fill="black"/>
<path d="M297.527 120H288.7V128.84H297.527V120Z" fill="black"/>
<path d="M306.353 120H297.527V128.84H306.353V120Z" fill="black"/>
<path d="M315.18 120H306.353V128.84H315.18V120Z" fill="black"/>
<path d="M324.006 120H315.18V128.84H324.006V120Z" fill="black"/>
<path d="M332.832 120H324.006V128.84H332.832V120Z" fill="black"/>
<path d="M341.659 120H332.832V128.84H341.659V120Z" fill="black"/>
<path d="M129.826 128.84H121V137.68H129.826V128.84Z" fill="black"/>
<path d="M182.784 128.84H173.958L173.958 137.68H182.784V128.84Z" fill="black"/>
<path d="M235.742 128.84H226.916V137.68H235.742V128.84Z" fill="black"/>
<path d="M244.569 128.84H235.742V137.68H244.569V128.84Z" fill="black"/>
<path d="M271.048 128.84H262.221V137.68H271.048V128.84Z" fill="black"/>
<path d="M288.7 128.84H279.874V137.68H288.7V128.84Z" fill="black"/>
<path d="M341.659 128.84H332.832V137.68H341.659V128.84Z" fill="black"/>
<path d="M129.826 137.68H121V146.52H129.826V137.68Z" fill="black"/>
<path d="M147.479 137.68H138.653V146.52H147.479V137.68Z" fill="black"/>
<path d="M156.305 137.68H147.479V146.52H156.305V137.68Z" fill="black"/>
<path d="M165.132 137.68H156.305V146.52H165.132V137.68Z" fill="black"/>
<path d="M182.784 137.68H173.958V146.52H182.784V137.68Z" fill="black"/>
<path d="M209.263 137.68H200.437V146.52H209.263V137.68Z" fill="black"/>
<path d="M218.09 137.68H209.263V146.52H218.09V137.68Z" fill="black"/>
<path d="M226.916 137.68H218.09V146.52H226.916V137.68Z" fill="black"/>
<path d="M235.742 137.68H226.916V146.52H235.742V137.68Z" fill="black"/>
<path d="M244.569 137.68H235.742V146.52H244.569V137.68Z" fill="black"/>
<path d="M271.048 137.68H262.221V146.52H271.048V137.68Z" fill="black"/>
<path d="M288.7 137.68H279.874V146.52H288.7V137.68Z" fill="black"/>
<path d="M306.353 137.68H297.527V146.52H306.353V137.68Z" fill="black"/>
<path d="M315.18 137.68H306.353V146.52H315.18V137.68Z" fill="black"/>
<path d="M324.006 137.68H315.18V146.52H324.006V137.68Z" fill="black"/>
<path d="M341.659 137.68H332.832V146.52H341.659V137.68Z" fill="black"/>
<path d="M129.826 146.52H121V155.36H129.826V146.52Z" fill="black"/>
<path d="M147.479 146.52H138.653V155.36H147.479V146.52Z" fill="black"/>
<path d="M156.305 146.52H147.479V155.36H156.305V146.52Z" fill="black"/>
<path d="M165.132 146.52H156.305V155.36H165.132V146.52Z" fill="black"/>
<path d="M182.784 146.52H173.958V155.36H182.784V146.52Z" fill="black"/>
<path d="M209.263 146.52H200.437V155.36H209.263V146.52Z" fill="black"/>
<path d="M218.09 146.52H209.263V155.36H218.09V146.52Z" fill="black"/>
<path d="M244.569 146.52H235.742V155.36H244.569V146.52Z" fill="black"/>
<path d="M288.7 146.52H279.874V155.36H288.7V146.52Z" fill="black"/>
<path d="M306.353 146.52H297.527V155.36H306.353V146.52Z" fill="black"/>
<path d="M315.18 146.52H306.353V155.36H315.18V146.52Z" fill="black"/>
<path d="M324.006 146.52H315.18V155.36H324.006V146.52Z" fill="black"/>
<path d="M341.659 146.52H332.832V155.36H341.659V146.52Z" fill="black"/>
<path d="M129.826 155.36H121V164.2H129.826V155.36Z" fill="black"/>
<path d="M147.479 155.36H138.653V164.2H147.479V155.36Z" fill="black"/>
<path d="M156.305 155.36H147.479V164.2H156.305V155.36Z" fill="black"/>
<path d="M165.132 155.36H156.305V164.2H165.132V155.36Z" fill="black"/>
<path d="M182.784 155.36H173.958V164.2H182.784V155.36Z" fill="black"/>
<path d="M200.437 155.36H191.611V164.2H200.437V155.36Z" fill="black"/>
<path d="M218.09 155.36H209.263V164.2H218.09V155.36Z" fill="black"/>
<path d="M226.916 155.36H218.09V164.2H226.916V155.36Z" fill="black"/>
<path d="M235.742 155.36H226.916V164.2H235.742V155.36Z" fill="black"/>
<path d="M253.395 155.36H244.569V164.2H253.395V155.36Z" fill="black"/>
<path d="M288.7 155.36H279.874V164.2H288.7V155.36Z" fill="black"/>
<path d="M306.353 155.36H297.527V164.2H306.353V155.36Z" fill="black"/>
<path d="M315.18 155.36H306.353V164.2H315.18V155.36Z" fill="black"/>
<path d="M324.006 155.36H315.18V164.2H324.006V155.36Z" fill="black"/>
<path d="M341.659 155.36H332.832V164.2H341.659V155.36Z" fill="black"/>
<path d="M129.826 164.2H121V173.04H129.826V164.2Z" fill="black"/>
<path d="M182.784 164.2H173.958V173.04H182.784V164.2Z" fill="black"/>
<path d="M253.395 164.2H244.569V173.04H253.395V164.2Z" fill="black"/>
<path d="M288.7 164.2H279.874V173.04H288.7V164.2Z" fill="black"/>
<path d="M341.659 164.2H332.832V173.04H341.659V164.2Z" fill="black"/>
<path d="M129.826 173.04H121V181.88H129.826V173.04Z" fill="black"/>
<path d="M138.653 173.04L129.826 173.04V181.88H138.653V173.04Z" fill="black"/>
<path d="M147.479 173.04H138.653V181.88H147.479V173.04Z" fill="black"/>
<path d="M156.305 173.04H147.479V181.88H156.305V173.04Z" fill="black"/>
<path d="M165.132 173.04H156.305V181.88H165.132V173.04Z" fill="black"/>
<path d="M173.958 173.04L165.132 173.04V181.88H173.958L173.958 173.04Z" fill="black"/>
<path d="M182.784 173.04H173.958L173.958 181.88H182.784V173.04Z" fill="black"/>
<path d="M200.437 173.04H191.611V181.88H200.437V173.04Z" fill="black"/>
<path d="M218.09 173.04H209.263V181.88H218.09V173.04Z" fill="black"/>
<path d="M235.742 173.04H226.916V181.88H235.742V173.04Z" fill="black"/>
<path d="M253.395 173.04H244.569V181.88H253.395V173.04Z" fill="black"/>
<path d="M271.048 173.04H262.221V181.88H271.048V173.04Z" fill="black"/>
<path d="M288.7 173.04H279.874V181.88H288.7V173.04Z" fill="black"/>
<path d="M297.527 173.04L288.7 173.04V181.88H297.527V173.04Z" fill="black"/>
<path d="M306.353 173.04H297.527V181.88H306.353V173.04Z" fill="black"/>
<path d="M315.18 173.04H306.353V181.88H315.18V173.04Z" fill="black"/>
<path d="M324.006 173.04H315.18V181.88H324.006V173.04Z" fill="black"/>
<path d="M332.832 173.04L324.006 173.04V181.88H332.832V173.04Z" fill="black"/>
<path d="M341.659 173.04H332.832V181.88H341.659V173.04Z" fill="black"/>
<path d="M200.437 181.88H191.611V190.72H200.437V181.88Z" fill="black"/>
<path d="M218.09 181.88H209.263V190.72H218.09V181.88Z" fill="black"/>
<path d="M235.742 181.88H226.916V190.72H235.742V181.88Z" fill="black"/>
<path d="M244.569 181.88H235.742V190.72H244.569V181.88Z" fill="black"/>
<path d="M262.221 181.88H253.395L253.395 190.72H262.221V181.88Z" fill="black"/>
<path d="M271.048 181.88H262.221V190.72H271.048V181.88Z" fill="black"/>
<path d="M129.826 190.72H121V199.56H129.826V190.72Z" fill="black"/>
<path d="M156.305 190.72H147.479V199.56H156.305V190.72Z" fill="black"/>
<path d="M165.132 190.72H156.305V199.56H165.132V190.72Z" fill="black"/>
<path d="M173.958 190.72H165.132V199.56H173.958V190.72Z" fill="black"/>
<path d="M182.784 190.72H173.958V199.56H182.784V190.72Z" fill="black"/>
<path d="M191.611 190.72H182.784V199.56H191.611V190.72Z" fill="black"/>
<path d="M200.437 190.72H191.611V199.56H200.437V190.72Z" fill="black"/>
<path d="M209.263 190.72H200.437V199.56H209.263V190.72Z" fill="black"/>
<path d="M244.569 190.72H235.742V199.56H244.569V190.72Z" fill="black"/>
<path d="M271.048 190.72H262.221V199.56H271.048V190.72Z" fill="black"/>
<path d="M279.874 190.72H271.048V199.56H279.874V190.72Z" fill="black"/>
<path d="M288.7 190.72H279.874V199.56H288.7V190.72Z" fill="black"/>
<path d="M306.353 190.72H297.527V199.56H306.353V190.72Z" fill="black"/>
<path d="M341.659 190.72H332.832V199.56H341.659V190.72Z" fill="black"/>
<path d="M138.653 199.56H129.826V208.4H138.653V199.56Z" fill="black"/>
<path d="M156.305 199.56H147.479V208.4H156.305V199.56Z" fill="black"/>
<path d="M165.132 199.56H156.305V208.4H165.132V199.56Z" fill="black"/>
<path d="M191.611 199.56H182.784V208.4H191.611V199.56Z" fill="black"/>
<path d="M200.437 199.56H191.611V208.4H200.437V199.56Z" fill="black"/>
<path d="M235.742 199.56H226.916V208.4H235.742V199.56Z" fill="black"/>
<path d="M262.221 199.56H253.395V208.4H262.221V199.56Z" fill="black"/>
<path d="M279.874 199.56H271.048V208.4H279.874V199.56Z" fill="black"/>
<path d="M288.7 199.56H279.874V208.4H288.7V199.56Z" fill="black"/>
<path d="M306.353 199.56H297.527V208.4H306.353V199.56Z" fill="black"/>
<path d="M315.18 199.56H306.353V208.4H315.18V199.56Z" fill="black"/>
<path d="M324.006 199.56H315.18V208.4H324.006V199.56Z" fill="black"/>
<path d="M332.832 199.56H324.006V208.4H332.832V199.56Z" fill="black"/>
<path d="M341.659 199.56H332.832V208.4H341.659V199.56Z" fill="black"/>
<path d="M129.826 208.4H121V217.24H129.826V208.4Z" fill="black"/>
<path d="M138.653 208.4H129.826V217.24H138.653V208.4Z" fill="black"/>
<path d="M156.305 208.4H147.479V217.24H156.305V208.4Z" fill="black"/>
<path d="M165.132 208.4H156.305V217.24H165.132V208.4Z" fill="black"/>
<path d="M173.958 208.4H165.132V217.24H173.958V208.4Z" fill="black"/>
<path d="M182.784 208.4H173.958V217.24H182.784V208.4Z" fill="black"/>
<path d="M191.611 208.4H182.784V217.24H191.611V208.4Z" fill="black"/>
<path d="M209.263 208.4H200.437V217.24H209.263V208.4Z" fill="black"/>
<path d="M226.916 208.4H218.09V217.24H226.916V208.4Z" fill="black"/>
<path d="M235.742 208.4H226.916V217.24H235.742V208.4Z" fill="black"/>
<path d="M253.395 208.4H244.569V217.24H253.395L253.395 208.4Z" fill="black"/>
<path d="M271.048 208.4H262.221V217.24H271.048V208.4Z" fill="black"/>
<path d="M279.874 208.4H271.048V217.24H279.874V208.4Z" fill="black"/>
<path d="M288.7 208.4H279.874V217.24H288.7V208.4Z" fill="black"/>
<path d="M297.527 208.4H288.7V217.24H297.527V208.4Z" fill="black"/>
<path d="M306.353 208.4H297.527V217.24H306.353V208.4Z" fill="black"/>
<path d="M315.18 208.4H306.353V217.24H315.18V208.4Z" fill="black"/>
<path d="M324.006 208.4H315.18V217.24H324.006V208.4Z" fill="black"/>
<path d="M332.832 208.4H324.006V217.24H332.832V208.4Z" fill="black"/>
<path d="M129.826 217.24H121V226.08H129.826V217.24Z" fill="black"/>
<path d="M165.132 217.24H156.305V226.08H165.132V217.24Z" fill="black"/>
<path d="M173.958 217.24H165.132V226.08H173.958V217.24Z" fill="black"/>
<path d="M191.611 217.24H182.784V226.08H191.611V217.24Z" fill="black"/>
<path d="M209.263 217.24H200.437V226.08H209.263V217.24Z" fill="black"/>
<path d="M218.09 217.24H209.263V226.08H218.09V217.24Z" fill="black"/>
<path d="M253.395 217.24H244.569V226.08H253.395V217.24Z" fill="black"/>
<path d="M262.221 217.24H253.395V226.08H262.221V217.24Z" fill="black"/>
<path d="M306.353 217.24H297.527V226.08H306.353V217.24Z" fill="black"/>
<path d="M324.006 217.24H315.18V226.08H324.006V217.24Z" fill="black"/>
<path d="M332.832 217.24H324.006V226.08H332.832V217.24Z" fill="black"/>
<path d="M129.826 226.08H121V234.92H129.826V226.08Z" fill="black"/>
<path d="M156.305 226.08H147.479V234.92H156.305V226.08Z" fill="black"/>
<path d="M165.132 226.08H156.305V234.92H165.132V226.08Z" fill="black"/>
<path d="M173.958 226.08H165.132V234.92H173.958V226.08Z" fill="black"/>
<path d="M182.784 226.08H173.958V234.92H182.784V226.08Z" fill="black"/>
<path d="M191.611 226.08H182.784V234.92H191.611V226.08Z" fill="black"/>
<path d="M200.437 226.08H191.611V234.92H200.437V226.08Z" fill="black"/>
<path d="M218.09 226.08H209.263V234.92H218.09V226.08Z" fill="black"/>
<path d="M226.916 226.08H218.09V234.92H226.916V226.08Z" fill="black"/>
<path d="M244.569 226.08H235.742V234.92H244.569V226.08Z" fill="black"/>
<path d="M253.395 226.08H244.569V234.92H253.395V226.08Z" fill="black"/>
<path d="M271.048 226.08H262.221V234.92H271.048V226.08Z" fill="black"/>
<path d="M297.527 226.08H288.7V234.92H297.527V226.08Z" fill="black"/>
<path d="M315.18 226.08H306.353V234.92H315.18V226.08Z" fill="black"/>
<path d="M324.006 226.08H315.18V234.92H324.006V226.08Z" fill="black"/>
<path d="M341.659 226.08H332.832V234.92H341.659V226.08Z" fill="black"/>
<path d="M129.826 234.92H121V243.76H129.826V234.92Z" fill="black"/>
<path d="M138.653 234.92H129.826V243.76H138.653V234.92Z" fill="black"/>
<path d="M191.611 234.92H182.784V243.76H191.611V234.92Z" fill="black"/>
<path d="M200.437 234.92H191.611V243.76H200.437V234.92Z" fill="black"/>
<path d="M209.263 234.92H200.437V243.76H209.263V234.92Z" fill="black"/>
<path d="M235.742 234.92H226.916V243.76H235.742V234.92Z" fill="black"/>
<path d="M253.395 234.92H244.569V243.76H253.395V234.92Z" fill="black"/>
<path d="M262.221 234.92H253.395V243.76H262.221V234.92Z" fill="black"/>
<path d="M271.048 234.92H262.221V243.76H271.048V234.92Z" fill="black"/>
<path d="M279.874 234.92H271.048V243.76H279.874V234.92Z" fill="black"/>
<path d="M306.353 234.92H297.527V243.76H306.353V234.92Z" fill="black"/>
<path d="M324.006 234.92H315.18V243.76H324.006V234.92Z" fill="black"/>
<path d="M332.832 234.92H324.006V243.76H332.832V234.92Z" fill="black"/>
<path d="M341.659 234.92H332.832V243.76H341.659V234.92Z" fill="black"/>
<path d="M129.826 243.76H121V252.6H129.826V243.76Z" fill="black"/>
<path d="M138.653 243.76H129.826V252.6H138.653V243.76Z" fill="black"/>
<path d="M147.479 243.76H138.653V252.6H147.479V243.76Z" fill="black"/>
<path d="M182.784 243.76H173.958V252.6H182.784V243.76Z" fill="black"/>
<path d="M209.263 243.76H200.437V252.6H209.263V243.76Z" fill="black"/>
<path d="M226.916 243.76H218.09V252.6H226.916V243.76Z" fill="black"/>
<path d="M235.742 243.76H226.916V252.6H235.742V243.76Z" fill="black"/>
<path d="M253.395 243.76H244.569V252.6H253.395V243.76Z" fill="black"/>
<path d="M279.874 243.76H271.048V252.6H279.874V243.76Z" fill="black"/>
<path d="M297.527 243.76H288.7V252.6H297.527V243.76Z" fill="black"/>
<path d="M306.353 243.76H297.527V252.6H306.353V243.76Z" fill="black"/>
<path d="M324.006 243.76H315.18V252.6H324.006V243.76Z" fill="black"/>
<path d="M138.653 252.6H129.826V261.44H138.653V252.6Z" fill="black"/>
<path d="M191.611 252.6L182.784 252.6V261.44H191.611V252.6Z" fill="black"/>
<path d="M235.742 252.6H226.916V261.44H235.742V252.6Z" fill="black"/>
<path d="M253.395 252.6H244.569V261.44H253.395V252.6Z" fill="black"/>
<path d="M262.221 252.6L253.395 252.6V261.44H262.221V252.6Z" fill="black"/>
<path d="M288.7 252.6H279.874V261.44H288.7V252.6Z" fill="black"/>
<path d="M306.353 252.6H297.527V261.44H306.353V252.6Z" fill="black"/>
<path d="M332.832 252.6L324.006 252.6V261.44H332.832V252.6Z" fill="black"/>
<path d="M129.826 261.44H121V270.28H129.826V261.44Z" fill="black"/>
<path d="M173.958 261.44H165.132V270.28H173.958V261.44Z" fill="black"/>
<path d="M182.784 261.44H173.958V270.28H182.784V261.44Z" fill="black"/>
<path d="M191.611 261.44H182.784V270.28H191.611V261.44Z" fill="black"/>
<path d="M209.263 261.44H200.437V270.28H209.263V261.44Z" fill="black"/>
<path d="M218.09 261.44H209.263V270.28H218.09V261.44Z" fill="black"/>
<path d="M235.742 261.44H226.916V270.28H235.742V261.44Z" fill="black"/>
<path d="M262.221 261.44H253.395L253.395 270.28H262.221V261.44Z" fill="black"/>
<path d="M271.048 261.44H262.221V270.28H271.048V261.44Z" fill="black"/>
<path d="M279.874 261.44H271.048V270.28H279.874V261.44Z" fill="black"/>
<path d="M288.7 261.44H279.874V270.28H288.7V261.44Z" fill="black"/>
<path d="M297.527 261.44H288.7V270.28H297.527V261.44Z" fill="black"/>
<path d="M306.353 261.44H297.527V270.28H306.353V261.44Z" fill="black"/>
<path d="M315.18 261.44H306.353V270.28H315.18V261.44Z" fill="black"/>
<path d="M332.832 261.44H324.006V270.28H332.832V261.44Z" fill="black"/>
<path d="M200.437 270.28H191.611V279.12H200.437V270.28Z" fill="black"/>
<path d="M218.09 270.28H209.263V279.12H218.09V270.28Z" fill="black"/>
<path d="M235.742 270.28H226.916V279.12H235.742V270.28Z" fill="black"/>
<path d="M262.221 270.28H253.395V279.12H262.221V270.28Z" fill="black"/>
<path d="M271.048 270.28H262.221V279.12H271.048V270.28Z" fill="black"/>
<path d="M306.353 270.28H297.527V279.12H306.353V270.28Z" fill="black"/>
<path d="M315.18 270.28H306.353V279.12H315.18V270.28Z" fill="black"/>
<path d="M324.006 270.28H315.18V279.12H324.006V270.28Z" fill="black"/>
<path d="M129.826 279.12H121V287.96H129.826V279.12Z" fill="black"/>
<path d="M138.653 279.12H129.826V287.96H138.653V279.12Z" fill="black"/>
<path d="M147.479 279.12H138.653V287.96H147.479V279.12Z" fill="black"/>
<path d="M156.305 279.12H147.479V287.96H156.305V279.12Z" fill="black"/>
<path d="M165.132 279.12H156.305V287.96H165.132V279.12Z" fill="black"/>
<path d="M173.958 279.12H165.132V287.96H173.958V279.12Z" fill="black"/>
<path d="M182.784 279.12H173.958V287.96H182.784V279.12Z" fill="black"/>
<path d="M200.437 279.12H191.611V287.96H200.437V279.12Z" fill="black"/>
<path d="M235.742 279.12H226.916V287.96H235.742V279.12Z" fill="black"/>
<path d="M262.221 279.12H253.395V287.96H262.221V279.12Z" fill="black"/>
<path d="M271.048 279.12H262.221V287.96H271.048V279.12Z" fill="black"/>
<path d="M288.7 279.12H279.874V287.96H288.7V279.12Z" fill="black"/>
<path d="M306.353 279.12H297.527V287.96H306.353V279.12Z" fill="black"/>
<path d="M315.18 279.12H306.353V287.96H315.18V279.12Z" fill="black"/>
<path d="M324.006 279.12H315.18V287.96H324.006V279.12Z" fill="black"/>
<path d="M341.659 279.12H332.832V287.96H341.659V279.12Z" fill="black"/>
<path d="M129.826 287.96H121V296.8H129.826V287.96Z" fill="black"/>
<path d="M182.784 287.96H173.958L173.958 296.8H182.784V287.96Z" fill="black"/>
<path d="M200.437 287.96H191.611V296.8H200.437V287.96Z" fill="black"/>
<path d="M218.09 287.96H209.263V296.8H218.09V287.96Z" fill="black"/>
<path d="M253.395 287.96H244.569V296.8H253.395L253.395 287.96Z" fill="black"/>
<path d="M271.048 287.96H262.221V296.8H271.048V287.96Z" fill="black"/>
<path d="M306.353 287.96H297.527V296.8H306.353V287.96Z" fill="black"/>
<path d="M324.006 287.96H315.18V296.8H324.006V287.96Z" fill="black"/>
<path d="M129.826 296.8H121V305.64H129.826V296.8Z" fill="black"/>
<path d="M147.479 296.8H138.653V305.64H147.479V296.8Z" fill="black"/>
<path d="M156.305 296.8H147.479V305.64H156.305V296.8Z" fill="black"/>
<path d="M165.132 296.8H156.305V305.64H165.132V296.8Z" fill="black"/>
<path d="M182.784 296.8H173.958V305.64H182.784V296.8Z" fill="black"/>
<path d="M200.437 296.8H191.611V305.64H200.437V296.8Z" fill="black"/>
<path d="M209.263 296.8H200.437V305.64H209.263V296.8Z" fill="black"/>
<path d="M218.09 296.8H209.263V305.64H218.09V296.8Z" fill="black"/>
<path d="M244.569 296.8H235.742V305.64H244.569V296.8Z" fill="black"/>
<path d="M253.395 296.8H244.569V305.64H253.395V296.8Z" fill="black"/>
<path d="M271.048 296.8H262.221V305.64H271.048V296.8Z" fill="black"/>
<path d="M279.874 296.8H271.048V305.64H279.874V296.8Z" fill="black"/>
<path d="M288.7 296.8H279.874V305.64H288.7V296.8Z" fill="black"/>
<path d="M297.527 296.8H288.7V305.64H297.527V296.8Z" fill="black"/>
<path d="M306.353 296.8H297.527V305.64H306.353V296.8Z" fill="black"/>
<path d="M341.659 296.8H332.832V305.64H341.659V296.8Z" fill="black"/>
<path d="M129.826 305.64H121V314.48H129.826V305.64Z" fill="black"/>
<path d="M147.479 305.64H138.653V314.48H147.479V305.64Z" fill="black"/>
<path d="M156.305 305.64H147.479V314.48H156.305V305.64Z" fill="black"/>
<path d="M165.132 305.64H156.305V314.48H165.132V305.64Z" fill="black"/>
<path d="M182.784 305.64H173.958V314.48H182.784V305.64Z" fill="black"/>
<path d="M200.437 305.64H191.611V314.48H200.437V305.64Z" fill="black"/>
<path d="M235.742 305.64H226.916V314.48H235.742V305.64Z" fill="black"/>
<path d="M271.048 305.64H262.221V314.48H271.048V305.64Z" fill="black"/>
<path d="M279.874 305.64H271.048V314.48H279.874V305.64Z" fill="black"/>
<path d="M315.18 305.64H306.353V314.48H315.18V305.64Z" fill="black"/>
<path d="M129.826 314.48H121V323.32H129.826V314.48Z" fill="black"/>
<path d="M147.479 314.48H138.653V323.32H147.479V314.48Z" fill="black"/>
<path d="M156.305 314.48H147.479V323.32H156.305V314.48Z" fill="black"/>
<path d="M165.132 314.48H156.305V323.32H165.132V314.48Z" fill="black"/>
<path d="M182.784 314.48H173.958V323.32H182.784V314.48Z" fill="black"/>
<path d="M226.916 314.48H218.09V323.32H226.916V314.48Z" fill="black"/>
<path d="M235.742 314.48H226.916V323.32H235.742V314.48Z" fill="black"/>
<path d="M253.395 314.48H244.569V323.32H253.395V314.48Z" fill="black"/>
<path d="M262.221 314.48H253.395V323.32H262.221V314.48Z" fill="black"/>
<path d="M271.048 314.48H262.221V323.32H271.048V314.48Z" fill="black"/>
<path d="M297.527 314.48H288.7V323.32H297.527V314.48Z" fill="black"/>
<path d="M306.353 314.48H297.527V323.32H306.353V314.48Z" fill="black"/>
<path d="M324.006 314.48H315.18V323.32H324.006V314.48Z" fill="black"/>
<path d="M332.832 314.48H324.006V323.32H332.832V314.48Z" fill="black"/>
<path d="M341.659 314.48H332.832V323.32H341.659V314.48Z" fill="black"/>
<path d="M129.826 323.32H121V332.16H129.826V323.32Z" fill="black"/>
<path d="M182.784 323.32H173.958V332.16H182.784V323.32Z" fill="black"/>
<path d="M209.263 323.32H200.437V332.16H209.263V323.32Z" fill="black"/>
<path d="M218.09 323.32H209.263V332.16H218.09V323.32Z" fill="black"/>
<path d="M226.916 323.32H218.09V332.16H226.916V323.32Z" fill="black"/>
<path d="M244.569 323.32H235.742V332.16H244.569V323.32Z" fill="black"/>
<path d="M253.395 323.32H244.569V332.16H253.395V323.32Z" fill="black"/>
<path d="M279.874 323.32H271.048V332.16H279.874V323.32Z" fill="black"/>
<path d="M288.7 323.32H279.874V332.16H288.7V323.32Z" fill="black"/>
<path d="M297.527 323.32H288.7V332.16H297.527V323.32Z" fill="black"/>
<path d="M306.353 323.32H297.527V332.16H306.353V323.32Z" fill="black"/>
<path d="M324.006 323.32H315.18V332.16H324.006V323.32Z" fill="black"/>
<path d="M332.832 323.32H324.006V332.16H332.832V323.32Z" fill="black"/>
<path d="M341.659 323.32H332.832V332.16H341.659V323.32Z" fill="black"/>
<path d="M129.826 332.16H121V341H129.826V332.16Z" fill="black"/>
<path d="M138.653 332.16H129.826V341H138.653V332.16Z" fill="black"/>
<path d="M147.479 332.16H138.653V341H147.479V332.16Z" fill="black"/>
<path d="M156.305 332.16H147.479V341H156.305V332.16Z" fill="black"/>
<path d="M165.132 332.16H156.305V341H165.132V332.16Z" fill="black"/>
<path d="M173.958 332.16H165.132V341H173.958L173.958 332.16Z" fill="black"/>
<path d="M182.784 332.16H173.958L173.958 341H182.784V332.16Z" fill="black"/>
<path d="M200.437 332.16H191.611V341H200.437V332.16Z" fill="black"/>
<path d="M226.916 332.16H218.09V341H226.916V332.16Z" fill="black"/>
<path d="M235.742 332.16H226.916V341H235.742V332.16Z" fill="black"/>
<path d="M271.048 332.16H262.221V341H271.048V332.16Z" fill="black"/>
<path d="M315.18 332.16H306.353V341H315.18V332.16Z" fill="black"/>
<path d="M341.659 332.16H332.832V341H341.659V332.16Z" fill="black"/>
</mask>
<g mask="url(#mask0_391_215)">
</g>
</svg>
